<?xml version="1.0" standalone="no"?>
<!DOCTYPE svg PUBLIC "-//W3C//DTD SVG 1.1//EN" "http://www.w3.org/Graphics/SVG/1.1/DTD/svg11.dtd">
<svg width="800" height="600" version="1.1" xmlns="http://www.w3.org/2000/svg">
<rect width="800" height="600" x="0" y="0" style="fill:rgb(238,238,238);stroke:none"/>
<rect width="800" height="600" x="0" y="0" style="fill:rgb(255,255,255);stroke:none"/>
<text x="2" y="566" fill="rgb(0,0,0)" font-family="Arial" font-size="12">0</text>
<text x="2" y="478" fill="rgb(0,0,0)" font-family="Arial" font-size="12">10000</text>
<text x="2" y="389" fill="rgb(0,0,0)" font-family="Arial" font-size="12">20000</text>
<text x="2" y="300" fill="rgb(0,0,0)" font-family="Arial" font-size="12">30000</text>
<text x="2" y="211" fill="rgb(0,0,0)" font-family="Arial" font-size="12">40000</text>
<text x="2" y="122" fill="rgb(0,0,0)" font-family="Arial" font-size="12">50000</text>
<text x="278" y="30" fill="rgb(0,0,0)" font-family="Arial" font-size="12">Quality score distribution over all sequences</text>
<line x1="45" y1="560" x2="790" y2="560" stroke="rgb(0,0,0)" stroke-width="1"/>
<line x1="45" y1="560" x2="45" y2="40" stroke="rgb(0,0,0)" stroke-width="1"/>
<text x="281" y="595" fill="rgb(0,0,0)" font-family="Arial" font-size="12">Mean Sequence Quality (Phred Score)</text>
<text x="50" y="575" fill="rgb(0,0,0)" font-family="Arial" font-size="12">10</text>
<rect width="27" height="520" x="72" y="40" style="fill:rgb(230,230,230);stroke:none"/>
<text x="77" y="575" fill="rgb(0,0,0)" font-family="Arial" font-size="12">11</text>
<text x="104" y="575" fill="rgb(0,0,0)" font-family="Arial" font-size="12">12</text>
<rect width="27" height="520" x="126" y="40" style="fill:rgb(230,230,230);stroke:none"/>
<text x="131" y="575" fill="rgb(0,0,0)" font-family="Arial" font-size="12">13</text>
<text x="158" y="575" fill="rgb(0,0,0)" font-family="Arial" font-size="12">14</text>
<rect width="27" height="520" x="180" y="40" style="fill:rgb(230,230,230);stroke:none"/>
<text x="185" y="575" fill="rgb(0,0,0)" font-family="Arial" font-size="12">15</text>
<text x="212" y="575" fill="rgb(0,0,0)" font-family="Arial" font-size="12">16</text>
<rect width="27" height="520" x="234" y="40" style="fill:rgb(230,230,230);stroke:none"/>
<text x="239" y="575" fill="rgb(0,0,0)" font-family="Arial" font-size="12">17</text>
<text x="266" y="575" fill="rgb(0,0,0)" font-family="Arial" font-size="12">18</text>
<rect width="27" height="520" x="288" y="40" style="fill:rgb(230,230,230);stroke:none"/>
<text x="293" y="575" fill="rgb(0,0,0)" font-family="Arial" font-size="12">19</text>
<text x="320" y="575" fill="rgb(0,0,0)" font-family="Arial" font-size="12">20</text>
<rect width="27" height="520" x="342" y="40" style="fill:rgb(230,230,230);stroke:none"/>
<text x="347" y="575" fill="rgb(0,0,0)" font-family="Arial" font-size="12">21</text>
<text x="374" y="575" fill="rgb(0,0,0)" font-family="Arial" font-size="12">22</text>
<rect width="27" height="520" x="396" y="40" style="fill:rgb(230,230,230);stroke:none"/>
<text x="401" y="575" fill="rgb(0,0,0)" font-family="Arial" font-size="12">23</text>
<text x="428" y="575" fill="rgb(0,0,0)" font-family="Arial" font-size="12">24</text>
<rect width="27" height="520" x="450" y="40" style="fill:rgb(230,230,230);stroke:none"/>
<text x="455" y="575" fill="rgb(0,0,0)" font-family="Arial" font-size="12">25</text>
<text x="482" y="575" fill="rgb(0,0,0)" font-family="Arial" font-size="12">26</text>
<rect width="27" height="520" x="504" y="40" style="fill:rgb(230,230,230);stroke:none"/>
<text x="509" y="575" fill="rgb(0,0,0)" font-family="Arial" font-size="12">27</text>
<text x="536" y="575" fill="rgb(0,0,0)" font-family="Arial" font-size="12">28</text>
<rect width="27" height="520" x="558" y="40" style="fill:rgb(230,230,230);stroke:none"/>
<text x="563" y="575" fill="rgb(0,0,0)" font-family="Arial" font-size="12">29</text>
<text x="590" y="575" fill="rgb(0,0,0)" font-family="Arial" font-size="12">30</text>
<rect width="27" height="520" x="612" y="40" style="fill:rgb(230,230,230);stroke:none"/>
<text x="617" y="575" fill="rgb(0,0,0)" font-family="Arial" font-size="12">31</text>
<text x="644" y="575" fill="rgb(0,0,0)" font-family="Arial" font-size="12">32</text>
<rect width="27" height="520" x="666" y="40" style="fill:rgb(230,230,230);stroke:none"/>
<text x="671" y="575" fill="rgb(0,0,0)" font-family="Arial" font-size="12">33</text>
<text x="698" y="575" fill="rgb(0,0,0)" font-family="Arial" font-size="12">34</text>
<rect width="27" height="520" x="720" y="40" style="fill:rgb(230,230,230);stroke:none"/>
<text x="725" y="575" fill="rgb(0,0,0)" font-family="Arial" font-size="12">35</text>
<text x="752" y="575" fill="rgb(0,0,0)" font-family="Arial" font-size="12">36</text>
<line x1="45" y1="560" x2="790" y2="560" stroke="rgb(180,180,180)" stroke-width="1"/>
<line x1="45" y1="472" x2="790" y2="472" stroke="rgb(180,180,180)" stroke-width="1"/>
<line x1="45" y1="383" x2="790" y2="383" stroke="rgb(180,180,180)" stroke-width="1"/>
<line x1="45" y1="294" x2="790" y2="294" stroke="rgb(180,180,180)" stroke-width="1"/>
<line x1="45" y1="205" x2="790" y2="205" stroke="rgb(180,180,180)" stroke-width="1"/>
<line x1="45" y1="116" x2="790" y2="116" stroke="rgb(180,180,180)" stroke-width="1"/>
<line x1="58" y1="560" x2="85" y2="560" stroke="rgb(136,34,85)" stroke-width="1"/>
<line x1="85" y1="560" x2="112" y2="559" stroke="rgb(136,34,85)" stroke-width="1"/>
<line x1="112" y1="559" x2="139" y2="555" stroke="rgb(136,34,85)" stroke-width="1"/>
<line x1="139" y1="555" x2="166" y2="558" stroke="rgb(136,34,85)" stroke-width="1"/>
<line x1="166" y1="558" x2="193" y2="558" stroke="rgb(136,34,85)" stroke-width="1"/>
<line x1="193" y1="558" x2="220" y2="556" stroke="rgb(136,34,85)" stroke-width="1"/>
<line x1="220" y1="556" x2="247" y2="550" stroke="rgb(136,34,85)" stroke-width="1"/>
<line x1="247" y1="550" x2="274" y2="543" stroke="rgb(136,34,85)" stroke-width="1"/>
<line x1="274" y1="543" x2="301" y2="533" stroke="rgb(136,34,85)" stroke-width="1"/>
<line x1="301" y1="533" x2="328" y2="522" stroke="rgb(136,34,85)" stroke-width="1"/>
<line x1="328" y1="522" x2="355" y2="509" stroke="rgb(136,34,85)" stroke-width="1"/>
<line x1="355" y1="509" x2="382" y2="493" stroke="rgb(136,34,85)" stroke-width="1"/>
<line x1="382" y1="493" x2="409" y2="472" stroke="rgb(136,34,85)" stroke-width="1"/>
<line x1="409" y1="472" x2="436" y2="443" stroke="rgb(136,34,85)" stroke-width="1"/>
<line x1="436" y1="443" x2="463" y2="409" stroke="rgb(136,34,85)" stroke-width="1"/>
<line x1="463" y1="409" x2="490" y2="364" stroke="rgb(136,34,85)" stroke-width="1"/>
<line x1="490" y1="364" x2="517" y2="302" stroke="rgb(136,34,85)" stroke-width="1"/>
<line x1="517" y1="302" x2="544" y2="232" stroke="rgb(136,34,85)" stroke-width="1"/>
<line x1="544" y1="232" x2="571" y2="146" stroke="rgb(136,34,85)" stroke-width="1"/>
<line x1="571" y1="146" x2="598" y2="67" stroke="rgb(136,34,85)" stroke-width="1"/>
<line x1="598" y1="67" x2="625" y2="40" stroke="rgb(136,34,85)" stroke-width="1"/>
<line x1="625" y1="40" x2="652" y2="129" stroke="rgb(136,34,85)" stroke-width="1"/>
<line x1="652" y1="129" x2="679" y2="339" stroke="rgb(136,34,85)" stroke-width="1"/>
<line x1="679" y1="339" x2="706" y2="512" stroke="rgb(136,34,85)" stroke-width="1"/>
<line x1="706" y1="512" x2="733" y2="558" stroke="rgb(136,34,85)" stroke-width="1"/>
<line x1="733" y1="558" x2="760" y2="560" stroke="rgb(136,34,85)" stroke-width="1"/>
<rect width="183" height="23" x="607" y="40" style="fill:rgb(255,255,255);stroke:none"/>
<rect width="183" height="23" x="607" y="40" rx="0" ry="0" style="fill:none;stroke-width:1;stroke:rgb(192,192,192)"/>
<text x="610" y="55" fill="rgb(136,34,85)" font-family="Arial" font-size="12" font-weight="bold">Average Quality per read</text>
</svg>
