<?xml version="1.0" standalone="no"?>
<!DOCTYPE svg PUBLIC "-//W3C//DTD SVG 1.1//EN" "http://www.w3.org/Graphics/SVG/1.1/DTD/svg11.dtd">
<svg width="800" height="600" version="1.1" xmlns="http://www.w3.org/2000/svg">
<rect width="800" height="600" x="0" y="0" style="fill:rgb(238,238,238);stroke:none"/>
<rect width="800" height="600" x="0" y="0" style="fill:rgb(255,255,255);stroke:none"/>
<text x="2" y="566" fill="rgb(0,0,0)" font-family="Arial" font-size="12">0</text>
<text x="2" y="514" fill="rgb(0,0,0)" font-family="Arial" font-size="12">10</text>
<text x="2" y="462" fill="rgb(0,0,0)" font-family="Arial" font-size="12">20</text>
<text x="2" y="410" fill="rgb(0,0,0)" font-family="Arial" font-size="12">30</text>
<text x="2" y="358" fill="rgb(0,0,0)" font-family="Arial" font-size="12">40</text>
<text x="2" y="306" fill="rgb(0,0,0)" font-family="Arial" font-size="12">50</text>
<text x="2" y="254" fill="rgb(0,0,0)" font-family="Arial" font-size="12">60</text>
<text x="2" y="202" fill="rgb(0,0,0)" font-family="Arial" font-size="12">70</text>
<text x="2" y="150" fill="rgb(0,0,0)" font-family="Arial" font-size="12">80</text>
<text x="2" y="98" fill="rgb(0,0,0)" font-family="Arial" font-size="12">90</text>
<text x="2" y="46" fill="rgb(0,0,0)" font-family="Arial" font-size="12">100</text>
<text x="298" y="30" fill="rgb(0,0,0)" font-family="Arial" font-size="12">Sequence content across all bases</text>
<line x1="29" y1="560" x2="790" y2="560" stroke="rgb(0,0,0)" stroke-width="1"/>
<line x1="29" y1="560" x2="29" y2="40" stroke="rgb(0,0,0)" stroke-width="1"/>
<text x="336" y="595" fill="rgb(0,0,0)" font-family="Arial" font-size="12">Position in read (bp)</text>
<text x="35" y="575" fill="rgb(0,0,0)" font-family="Arial" font-size="12">1</text>
<rect width="20" height="520" x="49" y="40" style="fill:rgb(230,230,230);stroke:none"/>
<text x="55" y="575" fill="rgb(0,0,0)" font-family="Arial" font-size="12">2</text>
<text x="75" y="575" fill="rgb(0,0,0)" font-family="Arial" font-size="12">3</text>
<rect width="20" height="520" x="89" y="40" style="fill:rgb(230,230,230);stroke:none"/>
<text x="95" y="575" fill="rgb(0,0,0)" font-family="Arial" font-size="12">4</text>
<text x="115" y="575" fill="rgb(0,0,0)" font-family="Arial" font-size="12">5</text>
<rect width="20" height="520" x="129" y="40" style="fill:rgb(230,230,230);stroke:none"/>
<text x="135" y="575" fill="rgb(0,0,0)" font-family="Arial" font-size="12">6</text>
<text x="155" y="575" fill="rgb(0,0,0)" font-family="Arial" font-size="12">7</text>
<rect width="20" height="520" x="169" y="40" style="fill:rgb(230,230,230);stroke:none"/>
<text x="175" y="575" fill="rgb(0,0,0)" font-family="Arial" font-size="12">8</text>
<text x="195" y="575" fill="rgb(0,0,0)" font-family="Arial" font-size="12">9</text>
<rect width="20" height="520" x="209" y="40" style="fill:rgb(230,230,230);stroke:none"/>
<text x="221" y="575" fill="rgb(0,0,0)" font-family="Arial" font-size="12">15-19</text>
<rect width="20" height="520" x="249" y="40" style="fill:rgb(230,230,230);stroke:none"/>
<rect width="20" height="520" x="289" y="40" style="fill:rgb(230,230,230);stroke:none"/>
<text x="281" y="575" fill="rgb(0,0,0)" font-family="Arial" font-size="12">30-34</text>
<rect width="20" height="520" x="329" y="40" style="fill:rgb(230,230,230);stroke:none"/>
<text x="341" y="575" fill="rgb(0,0,0)" font-family="Arial" font-size="12">45-49</text>
<rect width="20" height="520" x="369" y="40" style="fill:rgb(230,230,230);stroke:none"/>
<rect width="20" height="520" x="409" y="40" style="fill:rgb(230,230,230);stroke:none"/>
<text x="401" y="575" fill="rgb(0,0,0)" font-family="Arial" font-size="12">60-64</text>
<rect width="20" height="520" x="449" y="40" style="fill:rgb(230,230,230);stroke:none"/>
<text x="461" y="575" fill="rgb(0,0,0)" font-family="Arial" font-size="12">75-79</text>
<rect width="20" height="520" x="489" y="40" style="fill:rgb(230,230,230);stroke:none"/>
<rect width="20" height="520" x="529" y="40" style="fill:rgb(230,230,230);stroke:none"/>
<text x="521" y="575" fill="rgb(0,0,0)" font-family="Arial" font-size="12">90-94</text>
<rect width="20" height="520" x="569" y="40" style="fill:rgb(230,230,230);stroke:none"/>
<text x="573" y="575" fill="rgb(0,0,0)" font-family="Arial" font-size="12">105-109</text>
<rect width="20" height="520" x="609" y="40" style="fill:rgb(230,230,230);stroke:none"/>
<rect width="20" height="520" x="649" y="40" style="fill:rgb(230,230,230);stroke:none"/>
<text x="633" y="575" fill="rgb(0,0,0)" font-family="Arial" font-size="12">120-124</text>
<rect width="20" height="520" x="689" y="40" style="fill:rgb(230,230,230);stroke:none"/>
<text x="693" y="575" fill="rgb(0,0,0)" font-family="Arial" font-size="12">135-139</text>
<rect width="20" height="520" x="729" y="40" style="fill:rgb(230,230,230);stroke:none"/>
<rect width="20" height="520" x="769" y="40" style="fill:rgb(230,230,230);stroke:none"/>
<text x="767" y="575" fill="rgb(0,0,0)" font-family="Arial" font-size="12">150</text>
<line x1="29" y1="560" x2="790" y2="560" stroke="rgb(180,180,180)" stroke-width="1"/>
<line x1="29" y1="508" x2="790" y2="508" stroke="rgb(180,180,180)" stroke-width="1"/>
<line x1="29" y1="456" x2="790" y2="456" stroke="rgb(180,180,180)" stroke-width="1"/>
<line x1="29" y1="404" x2="790" y2="404" stroke="rgb(180,180,180)" stroke-width="1"/>
<line x1="29" y1="352" x2="790" y2="352" stroke="rgb(180,180,180)" stroke-width="1"/>
<line x1="29" y1="300" x2="790" y2="300" stroke="rgb(180,180,180)" stroke-width="1"/>
<line x1="29" y1="248" x2="790" y2="248" stroke="rgb(180,180,180)" stroke-width="1"/>
<line x1="29" y1="196" x2="790" y2="196" stroke="rgb(180,180,180)" stroke-width="1"/>
<line x1="29" y1="144" x2="790" y2="144" stroke="rgb(180,180,180)" stroke-width="1"/>
<line x1="29" y1="92" x2="790" y2="92" stroke="rgb(180,180,180)" stroke-width="1"/>
<line x1="29" y1="40" x2="790" y2="40" stroke="rgb(180,180,180)" stroke-width="1"/>
<line x1="39" y1="261" x2="59" y2="560" stroke="rgb(136,34,85)" stroke-width="1"/>
<line x1="59" y1="560" x2="79" y2="341" stroke="rgb(136,34,85)" stroke-width="1"/>
<line x1="79" y1="341" x2="99" y2="559" stroke="rgb(136,34,85)" stroke-width="1"/>
<line x1="99" y1="559" x2="119" y2="341" stroke="rgb(136,34,85)" stroke-width="1"/>
<line x1="119" y1="341" x2="139" y2="342" stroke="rgb(136,34,85)" stroke-width="1"/>
<line x1="139" y1="342" x2="159" y2="560" stroke="rgb(136,34,85)" stroke-width="1"/>
<line x1="159" y1="560" x2="179" y2="560" stroke="rgb(136,34,85)" stroke-width="1"/>
<line x1="179" y1="560" x2="199" y2="560" stroke="rgb(136,34,85)" stroke-width="1"/>
<line x1="199" y1="560" x2="219" y2="412" stroke="rgb(136,34,85)" stroke-width="1"/>
<line x1="219" y1="412" x2="239" y2="397" stroke="rgb(136,34,85)" stroke-width="1"/>
<line x1="239" y1="397" x2="259" y2="470" stroke="rgb(136,34,85)" stroke-width="1"/>
<line x1="259" y1="470" x2="279" y2="353" stroke="rgb(136,34,85)" stroke-width="1"/>
<line x1="279" y1="353" x2="299" y2="254" stroke="rgb(136,34,85)" stroke-width="1"/>
<line x1="299" y1="254" x2="319" y2="398" stroke="rgb(136,34,85)" stroke-width="1"/>
<line x1="319" y1="398" x2="339" y2="513" stroke="rgb(136,34,85)" stroke-width="1"/>
<line x1="339" y1="513" x2="359" y2="414" stroke="rgb(136,34,85)" stroke-width="1"/>
<line x1="359" y1="414" x2="379" y2="557" stroke="rgb(136,34,85)" stroke-width="1"/>
<line x1="379" y1="557" x2="399" y2="472" stroke="rgb(136,34,85)" stroke-width="1"/>
<line x1="399" y1="472" x2="419" y2="396" stroke="rgb(136,34,85)" stroke-width="1"/>
<line x1="419" y1="396" x2="439" y2="457" stroke="rgb(136,34,85)" stroke-width="1"/>
<line x1="439" y1="457" x2="459" y2="438" stroke="rgb(136,34,85)" stroke-width="1"/>
<line x1="459" y1="438" x2="479" y2="428" stroke="rgb(136,34,85)" stroke-width="1"/>
<line x1="479" y1="428" x2="499" y2="254" stroke="rgb(136,34,85)" stroke-width="1"/>
<line x1="499" y1="254" x2="519" y2="456" stroke="rgb(136,34,85)" stroke-width="1"/>
<line x1="519" y1="456" x2="539" y2="272" stroke="rgb(136,34,85)" stroke-width="1"/>
<line x1="539" y1="272" x2="559" y2="514" stroke="rgb(136,34,85)" stroke-width="1"/>
<line x1="559" y1="514" x2="579" y2="410" stroke="rgb(136,34,85)" stroke-width="1"/>
<line x1="579" y1="410" x2="599" y2="473" stroke="rgb(136,34,85)" stroke-width="1"/>
<line x1="599" y1="473" x2="619" y2="551" stroke="rgb(136,34,85)" stroke-width="1"/>
<line x1="619" y1="551" x2="639" y2="399" stroke="rgb(136,34,85)" stroke-width="1"/>
<line x1="639" y1="399" x2="659" y2="339" stroke="rgb(136,34,85)" stroke-width="1"/>
<line x1="659" y1="339" x2="679" y2="357" stroke="rgb(136,34,85)" stroke-width="1"/>
<line x1="679" y1="357" x2="699" y2="392" stroke="rgb(136,34,85)" stroke-width="1"/>
<line x1="699" y1="392" x2="719" y2="360" stroke="rgb(136,34,85)" stroke-width="1"/>
<line x1="719" y1="360" x2="739" y2="468" stroke="rgb(136,34,85)" stroke-width="1"/>
<line x1="739" y1="468" x2="759" y2="410" stroke="rgb(136,34,85)" stroke-width="1"/>
<line x1="759" y1="410" x2="779" y2="66" stroke="rgb(136,34,85)" stroke-width="1"/>
<line x1="39" y1="341" x2="59" y2="43" stroke="rgb(51,34,136)" stroke-width="1"/>
<line x1="59" y1="43" x2="79" y2="262" stroke="rgb(51,34,136)" stroke-width="1"/>
<line x1="79" y1="262" x2="99" y2="560" stroke="rgb(51,34,136)" stroke-width="1"/>
<line x1="99" y1="560" x2="119" y2="560" stroke="rgb(51,34,136)" stroke-width="1"/>
<line x1="119" y1="560" x2="139" y2="560" stroke="rgb(51,34,136)" stroke-width="1"/>
<line x1="139" y1="560" x2="159" y2="558" stroke="rgb(51,34,136)" stroke-width="1"/>
<line x1="159" y1="558" x2="179" y2="259" stroke="rgb(51,34,136)" stroke-width="1"/>
<line x1="179" y1="259" x2="199" y2="45" stroke="rgb(51,34,136)" stroke-width="1"/>
<line x1="199" y1="45" x2="219" y2="500" stroke="rgb(51,34,136)" stroke-width="1"/>
<line x1="219" y1="500" x2="239" y2="473" stroke="rgb(51,34,136)" stroke-width="1"/>
<line x1="239" y1="473" x2="259" y2="441" stroke="rgb(51,34,136)" stroke-width="1"/>
<line x1="259" y1="441" x2="279" y2="472" stroke="rgb(51,34,136)" stroke-width="1"/>
<line x1="279" y1="472" x2="299" y2="412" stroke="rgb(51,34,136)" stroke-width="1"/>
<line x1="299" y1="412" x2="319" y2="370" stroke="rgb(51,34,136)" stroke-width="1"/>
<line x1="319" y1="370" x2="339" y2="516" stroke="rgb(51,34,136)" stroke-width="1"/>
<line x1="339" y1="516" x2="359" y2="559" stroke="rgb(51,34,136)" stroke-width="1"/>
<line x1="359" y1="559" x2="379" y2="560" stroke="rgb(51,34,136)" stroke-width="1"/>
<line x1="379" y1="560" x2="399" y2="471" stroke="rgb(51,34,136)" stroke-width="1"/>
<line x1="399" y1="471" x2="419" y2="455" stroke="rgb(51,34,136)" stroke-width="1"/>
<line x1="419" y1="455" x2="439" y2="502" stroke="rgb(51,34,136)" stroke-width="1"/>
<line x1="439" y1="502" x2="459" y2="499" stroke="rgb(51,34,136)" stroke-width="1"/>
<line x1="459" y1="499" x2="479" y2="557" stroke="rgb(51,34,136)" stroke-width="1"/>
<line x1="479" y1="557" x2="499" y2="457" stroke="rgb(51,34,136)" stroke-width="1"/>
<line x1="499" y1="457" x2="519" y2="336" stroke="rgb(51,34,136)" stroke-width="1"/>
<line x1="519" y1="336" x2="539" y2="500" stroke="rgb(51,34,136)" stroke-width="1"/>
<line x1="539" y1="500" x2="559" y2="511" stroke="rgb(51,34,136)" stroke-width="1"/>
<line x1="559" y1="511" x2="579" y2="358" stroke="rgb(51,34,136)" stroke-width="1"/>
<line x1="579" y1="358" x2="599" y2="441" stroke="rgb(51,34,136)" stroke-width="1"/>
<line x1="599" y1="441" x2="619" y2="559" stroke="rgb(51,34,136)" stroke-width="1"/>
<line x1="619" y1="559" x2="639" y2="558" stroke="rgb(51,34,136)" stroke-width="1"/>
<line x1="639" y1="558" x2="659" y2="515" stroke="rgb(51,34,136)" stroke-width="1"/>
<line x1="659" y1="515" x2="679" y2="456" stroke="rgb(51,34,136)" stroke-width="1"/>
<line x1="679" y1="456" x2="699" y2="355" stroke="rgb(51,34,136)" stroke-width="1"/>
<line x1="699" y1="355" x2="719" y2="456" stroke="rgb(51,34,136)" stroke-width="1"/>
<line x1="719" y1="456" x2="739" y2="558" stroke="rgb(51,34,136)" stroke-width="1"/>
<line x1="739" y1="558" x2="759" y2="355" stroke="rgb(51,34,136)" stroke-width="1"/>
<line x1="759" y1="355" x2="779" y2="553" stroke="rgb(51,34,136)" stroke-width="1"/>
<line x1="39" y1="560" x2="59" y2="559" stroke="rgb(17,119,51)" stroke-width="1"/>
<line x1="59" y1="559" x2="79" y2="559" stroke="rgb(17,119,51)" stroke-width="1"/>
<line x1="79" y1="559" x2="99" y2="261" stroke="rgb(17,119,51)" stroke-width="1"/>
<line x1="99" y1="261" x2="119" y2="559" stroke="rgb(17,119,51)" stroke-width="1"/>
<line x1="119" y1="559" x2="139" y2="262" stroke="rgb(17,119,51)" stroke-width="1"/>
<line x1="139" y1="262" x2="159" y2="559" stroke="rgb(17,119,51)" stroke-width="1"/>
<line x1="159" y1="559" x2="179" y2="343" stroke="rgb(17,119,51)" stroke-width="1"/>
<line x1="179" y1="343" x2="199" y2="557" stroke="rgb(17,119,51)" stroke-width="1"/>
<line x1="199" y1="557" x2="219" y2="353" stroke="rgb(17,119,51)" stroke-width="1"/>
<line x1="219" y1="353" x2="239" y2="456" stroke="rgb(17,119,51)" stroke-width="1"/>
<line x1="239" y1="456" x2="259" y2="397" stroke="rgb(17,119,51)" stroke-width="1"/>
<line x1="259" y1="397" x2="279" y2="440" stroke="rgb(17,119,51)" stroke-width="1"/>
<line x1="279" y1="440" x2="299" y2="556" stroke="rgb(17,119,51)" stroke-width="1"/>
<line x1="299" y1="556" x2="319" y2="439" stroke="rgb(17,119,51)" stroke-width="1"/>
<line x1="319" y1="439" x2="339" y2="399" stroke="rgb(17,119,51)" stroke-width="1"/>
<line x1="339" y1="399" x2="359" y2="294" stroke="rgb(17,119,51)" stroke-width="1"/>
<line x1="359" y1="294" x2="379" y2="282" stroke="rgb(17,119,51)" stroke-width="1"/>
<line x1="379" y1="282" x2="399" y2="440" stroke="rgb(17,119,51)" stroke-width="1"/>
<line x1="399" y1="440" x2="419" y2="413" stroke="rgb(17,119,51)" stroke-width="1"/>
<line x1="419" y1="413" x2="439" y2="412" stroke="rgb(17,119,51)" stroke-width="1"/>
<line x1="439" y1="412" x2="459" y2="313" stroke="rgb(17,119,51)" stroke-width="1"/>
<line x1="459" y1="313" x2="479" y2="382" stroke="rgb(17,119,51)" stroke-width="1"/>
<line x1="479" y1="382" x2="499" y2="512" stroke="rgb(17,119,51)" stroke-width="1"/>
<line x1="499" y1="512" x2="519" y2="415" stroke="rgb(17,119,51)" stroke-width="1"/>
<line x1="519" y1="415" x2="539" y2="496" stroke="rgb(17,119,51)" stroke-width="1"/>
<line x1="539" y1="496" x2="559" y2="384" stroke="rgb(17,119,51)" stroke-width="1"/>
<line x1="559" y1="384" x2="579" y2="454" stroke="rgb(17,119,51)" stroke-width="1"/>
<line x1="579" y1="454" x2="599" y2="410" stroke="rgb(17,119,51)" stroke-width="1"/>
<line x1="599" y1="410" x2="619" y2="99" stroke="rgb(17,119,51)" stroke-width="1"/>
<line x1="619" y1="99" x2="639" y2="368" stroke="rgb(17,119,51)" stroke-width="1"/>
<line x1="639" y1="368" x2="659" y2="398" stroke="rgb(17,119,51)" stroke-width="1"/>
<line x1="659" y1="398" x2="679" y2="456" stroke="rgb(17,119,51)" stroke-width="1"/>
<line x1="679" y1="456" x2="699" y2="473" stroke="rgb(17,119,51)" stroke-width="1"/>
<line x1="699" y1="473" x2="719" y2="407" stroke="rgb(17,119,51)" stroke-width="1"/>
<line x1="719" y1="407" x2="739" y2="227" stroke="rgb(17,119,51)" stroke-width="1"/>
<line x1="739" y1="227" x2="759" y2="501" stroke="rgb(17,119,51)" stroke-width="1"/>
<line x1="759" y1="501" x2="779" y2="559" stroke="rgb(17,119,51)" stroke-width="1"/>
<line x1="39" y1="560" x2="59" y2="560" stroke="rgb(221,204,119)" stroke-width="1"/>
<line x1="59" y1="560" x2="79" y2="560" stroke="rgb(221,204,119)" stroke-width="1"/>
<line x1="79" y1="560" x2="99" y2="341" stroke="rgb(221,204,119)" stroke-width="1"/>
<line x1="99" y1="341" x2="119" y2="262" stroke="rgb(221,204,119)" stroke-width="1"/>
<line x1="119" y1="262" x2="139" y2="557" stroke="rgb(221,204,119)" stroke-width="1"/>
<line x1="139" y1="557" x2="159" y2="45" stroke="rgb(221,204,119)" stroke-width="1"/>
<line x1="159" y1="45" x2="179" y2="560" stroke="rgb(221,204,119)" stroke-width="1"/>
<line x1="179" y1="560" x2="199" y2="560" stroke="rgb(221,204,119)" stroke-width="1"/>
<line x1="199" y1="560" x2="219" y2="457" stroke="rgb(221,204,119)" stroke-width="1"/>
<line x1="219" y1="457" x2="239" y2="396" stroke="rgb(221,204,119)" stroke-width="1"/>
<line x1="239" y1="396" x2="259" y2="413" stroke="rgb(221,204,119)" stroke-width="1"/>
<line x1="259" y1="413" x2="279" y2="456" stroke="rgb(221,204,119)" stroke-width="1"/>
<line x1="279" y1="456" x2="299" y2="500" stroke="rgb(221,204,119)" stroke-width="1"/>
<line x1="299" y1="500" x2="319" y2="516" stroke="rgb(221,204,119)" stroke-width="1"/>
<line x1="319" y1="516" x2="339" y2="294" stroke="rgb(221,204,119)" stroke-width="1"/>
<line x1="339" y1="294" x2="359" y2="455" stroke="rgb(221,204,119)" stroke-width="1"/>
<line x1="359" y1="455" x2="379" y2="324" stroke="rgb(221,204,119)" stroke-width="1"/>
<line x1="379" y1="324" x2="399" y2="339" stroke="rgb(221,204,119)" stroke-width="1"/>
<line x1="399" y1="339" x2="419" y2="458" stroke="rgb(221,204,119)" stroke-width="1"/>
<line x1="419" y1="458" x2="439" y2="352" stroke="rgb(221,204,119)" stroke-width="1"/>
<line x1="439" y1="352" x2="459" y2="471" stroke="rgb(221,204,119)" stroke-width="1"/>
<line x1="459" y1="471" x2="479" y2="355" stroke="rgb(221,204,119)" stroke-width="1"/>
<line x1="479" y1="355" x2="499" y2="500" stroke="rgb(221,204,119)" stroke-width="1"/>
<line x1="499" y1="500" x2="519" y2="516" stroke="rgb(221,204,119)" stroke-width="1"/>
<line x1="519" y1="516" x2="539" y2="455" stroke="rgb(221,204,119)" stroke-width="1"/>
<line x1="539" y1="455" x2="559" y2="313" stroke="rgb(221,204,119)" stroke-width="1"/>
<line x1="559" y1="313" x2="579" y2="500" stroke="rgb(221,204,119)" stroke-width="1"/>
<line x1="579" y1="500" x2="599" y2="398" stroke="rgb(221,204,119)" stroke-width="1"/>
<line x1="599" y1="398" x2="619" y2="514" stroke="rgb(221,204,119)" stroke-width="1"/>
<line x1="619" y1="514" x2="639" y2="397" stroke="rgb(221,204,119)" stroke-width="1"/>
<line x1="639" y1="397" x2="659" y2="471" stroke="rgb(221,204,119)" stroke-width="1"/>
<line x1="659" y1="471" x2="679" y2="453" stroke="rgb(221,204,119)" stroke-width="1"/>
<line x1="679" y1="453" x2="699" y2="502" stroke="rgb(221,204,119)" stroke-width="1"/>
<line x1="699" y1="502" x2="719" y2="499" stroke="rgb(221,204,119)" stroke-width="1"/>
<line x1="719" y1="499" x2="739" y2="470" stroke="rgb(221,204,119)" stroke-width="1"/>
<line x1="739" y1="470" x2="759" y2="455" stroke="rgb(221,204,119)" stroke-width="1"/>
<line x1="759" y1="455" x2="779" y2="544" stroke="rgb(221,204,119)" stroke-width="1"/>
<rect width="28" height="83" x="762" y="40" style="fill:rgb(255,255,255);stroke:none"/>
<rect width="28" height="83" x="762" y="40" rx="0" ry="0" style="fill:none;stroke-width:1;stroke:rgb(192,192,192)"/>
<text x="765" y="55" fill="rgb(136,34,85)" font-family="Arial" font-size="12" font-weight="bold">%T</text>
<text x="765" y="75" fill="rgb(51,34,136)" font-family="Arial" font-size="12" font-weight="bold">%C</text>
<text x="765" y="95" fill="rgb(17,119,51)" font-family="Arial" font-size="12" font-weight="bold">%A</text>
<text x="765" y="115" fill="rgb(221,204,119)" font-family="Arial" font-size="12" font-weight="bold">%G</text>
</svg>
