<?xml version="1.0" standalone="no"?>
<!DOCTYPE svg PUBLIC "-//W3C//DTD SVG 1.1//EN" "http://www.w3.org/Graphics/SVG/1.1/DTD/svg11.dtd">
<svg width="800" height="600" version="1.1" xmlns="http://www.w3.org/2000/svg">
<rect width="800" height="600" x="0" y="0" style="fill:rgb(238,238,238);stroke:none"/>
<rect width="800" height="600" x="0" y="0" style="fill:rgb(255,255,255);stroke:none"/>
<text x="2" y="566" fill="rgb(0,0,0)" font-family="Arial" font-size="12">0</text>
<text x="2" y="496" fill="rgb(0,0,0)" font-family="Arial" font-size="12">100000</text>
<text x="2" y="426" fill="rgb(0,0,0)" font-family="Arial" font-size="12">200000</text>
<text x="2" y="355" fill="rgb(0,0,0)" font-family="Arial" font-size="12">300000</text>
<text x="2" y="285" fill="rgb(0,0,0)" font-family="Arial" font-size="12">400000</text>
<text x="2" y="214" fill="rgb(0,0,0)" font-family="Arial" font-size="12">500000</text>
<text x="2" y="144" fill="rgb(0,0,0)" font-family="Arial" font-size="12">600000</text>
<text x="2" y="73" fill="rgb(0,0,0)" font-family="Arial" font-size="12">700000</text>
<text x="282" y="30" fill="rgb(0,0,0)" font-family="Arial" font-size="12">Quality score distribution over all sequences</text>
<line x1="53" y1="560" x2="790" y2="560" stroke="rgb(0,0,0)" stroke-width="1"/>
<line x1="53" y1="560" x2="53" y2="40" stroke="rgb(0,0,0)" stroke-width="1"/>
<text x="281" y="595" fill="rgb(0,0,0)" font-family="Arial" font-size="12">Mean Sequence Quality (Phred Score)</text>
<text x="61" y="575" fill="rgb(0,0,0)" font-family="Arial" font-size="12">16</text>
<rect width="33" height="520" x="86" y="40" style="fill:rgb(230,230,230);stroke:none"/>
<text x="94" y="575" fill="rgb(0,0,0)" font-family="Arial" font-size="12">17</text>
<text x="127" y="575" fill="rgb(0,0,0)" font-family="Arial" font-size="12">18</text>
<rect width="33" height="520" x="152" y="40" style="fill:rgb(230,230,230);stroke:none"/>
<text x="160" y="575" fill="rgb(0,0,0)" font-family="Arial" font-size="12">19</text>
<text x="193" y="575" fill="rgb(0,0,0)" font-family="Arial" font-size="12">20</text>
<rect width="33" height="520" x="218" y="40" style="fill:rgb(230,230,230);stroke:none"/>
<text x="226" y="575" fill="rgb(0,0,0)" font-family="Arial" font-size="12">21</text>
<text x="259" y="575" fill="rgb(0,0,0)" font-family="Arial" font-size="12">22</text>
<rect width="33" height="520" x="284" y="40" style="fill:rgb(230,230,230);stroke:none"/>
<text x="292" y="575" fill="rgb(0,0,0)" font-family="Arial" font-size="12">23</text>
<text x="325" y="575" fill="rgb(0,0,0)" font-family="Arial" font-size="12">24</text>
<rect width="33" height="520" x="350" y="40" style="fill:rgb(230,230,230);stroke:none"/>
<text x="358" y="575" fill="rgb(0,0,0)" font-family="Arial" font-size="12">25</text>
<text x="391" y="575" fill="rgb(0,0,0)" font-family="Arial" font-size="12">26</text>
<rect width="33" height="520" x="416" y="40" style="fill:rgb(230,230,230);stroke:none"/>
<text x="424" y="575" fill="rgb(0,0,0)" font-family="Arial" font-size="12">27</text>
<text x="457" y="575" fill="rgb(0,0,0)" font-family="Arial" font-size="12">28</text>
<rect width="33" height="520" x="482" y="40" style="fill:rgb(230,230,230);stroke:none"/>
<text x="490" y="575" fill="rgb(0,0,0)" font-family="Arial" font-size="12">29</text>
<text x="523" y="575" fill="rgb(0,0,0)" font-family="Arial" font-size="12">30</text>
<rect width="33" height="520" x="548" y="40" style="fill:rgb(230,230,230);stroke:none"/>
<text x="556" y="575" fill="rgb(0,0,0)" font-family="Arial" font-size="12">31</text>
<text x="589" y="575" fill="rgb(0,0,0)" font-family="Arial" font-size="12">32</text>
<rect width="33" height="520" x="614" y="40" style="fill:rgb(230,230,230);stroke:none"/>
<text x="622" y="575" fill="rgb(0,0,0)" font-family="Arial" font-size="12">33</text>
<text x="655" y="575" fill="rgb(0,0,0)" font-family="Arial" font-size="12">34</text>
<rect width="33" height="520" x="680" y="40" style="fill:rgb(230,230,230);stroke:none"/>
<text x="688" y="575" fill="rgb(0,0,0)" font-family="Arial" font-size="12">35</text>
<text x="721" y="575" fill="rgb(0,0,0)" font-family="Arial" font-size="12">36</text>
<rect width="33" height="520" x="746" y="40" style="fill:rgb(230,230,230);stroke:none"/>
<text x="754" y="575" fill="rgb(0,0,0)" font-family="Arial" font-size="12">37</text>
<line x1="53" y1="560" x2="790" y2="560" stroke="rgb(180,180,180)" stroke-width="1"/>
<line x1="53" y1="490" x2="790" y2="490" stroke="rgb(180,180,180)" stroke-width="1"/>
<line x1="53" y1="420" x2="790" y2="420" stroke="rgb(180,180,180)" stroke-width="1"/>
<line x1="53" y1="349" x2="790" y2="349" stroke="rgb(180,180,180)" stroke-width="1"/>
<line x1="53" y1="279" x2="790" y2="279" stroke="rgb(180,180,180)" stroke-width="1"/>
<line x1="53" y1="208" x2="790" y2="208" stroke="rgb(180,180,180)" stroke-width="1"/>
<line x1="53" y1="138" x2="790" y2="138" stroke="rgb(180,180,180)" stroke-width="1"/>
<line x1="53" y1="67" x2="790" y2="67" stroke="rgb(180,180,180)" stroke-width="1"/>
<line x1="69" y1="560" x2="102" y2="560" stroke="rgb(136,34,85)" stroke-width="1"/>
<line x1="102" y1="560" x2="135" y2="560" stroke="rgb(136,34,85)" stroke-width="1"/>
<line x1="135" y1="560" x2="168" y2="560" stroke="rgb(136,34,85)" stroke-width="1"/>
<line x1="168" y1="560" x2="201" y2="560" stroke="rgb(136,34,85)" stroke-width="1"/>
<line x1="201" y1="560" x2="234" y2="560" stroke="rgb(136,34,85)" stroke-width="1"/>
<line x1="234" y1="560" x2="267" y2="560" stroke="rgb(136,34,85)" stroke-width="1"/>
<line x1="267" y1="560" x2="300" y2="560" stroke="rgb(136,34,85)" stroke-width="1"/>
<line x1="300" y1="560" x2="333" y2="560" stroke="rgb(136,34,85)" stroke-width="1"/>
<line x1="333" y1="560" x2="366" y2="560" stroke="rgb(136,34,85)" stroke-width="1"/>
<line x1="366" y1="560" x2="399" y2="559" stroke="rgb(136,34,85)" stroke-width="1"/>
<line x1="399" y1="559" x2="432" y2="557" stroke="rgb(136,34,85)" stroke-width="1"/>
<line x1="432" y1="557" x2="465" y2="555" stroke="rgb(136,34,85)" stroke-width="1"/>
<line x1="465" y1="555" x2="498" y2="551" stroke="rgb(136,34,85)" stroke-width="1"/>
<line x1="498" y1="551" x2="531" y2="545" stroke="rgb(136,34,85)" stroke-width="1"/>
<line x1="531" y1="545" x2="564" y2="536" stroke="rgb(136,34,85)" stroke-width="1"/>
<line x1="564" y1="536" x2="597" y2="519" stroke="rgb(136,34,85)" stroke-width="1"/>
<line x1="597" y1="519" x2="630" y2="471" stroke="rgb(136,34,85)" stroke-width="1"/>
<line x1="630" y1="471" x2="663" y2="314" stroke="rgb(136,34,85)" stroke-width="1"/>
<line x1="663" y1="314" x2="696" y2="40" stroke="rgb(136,34,85)" stroke-width="1"/>
<line x1="696" y1="40" x2="729" y2="260" stroke="rgb(136,34,85)" stroke-width="1"/>
<line x1="729" y1="260" x2="762" y2="558" stroke="rgb(136,34,85)" stroke-width="1"/>
<rect width="183" height="23" x="607" y="40" style="fill:rgb(255,255,255);stroke:none"/>
<rect width="183" height="23" x="607" y="40" rx="0" ry="0" style="fill:none;stroke-width:1;stroke:rgb(192,192,192)"/>
<text x="610" y="55" fill="rgb(136,34,85)" font-family="Arial" font-size="12" font-weight="bold">Average Quality per read</text>
</svg>
