<?xml version="1.0" standalone="no"?>
<!DOCTYPE svg PUBLIC "-//W3C//DTD SVG 1.1//EN" "http://www.w3.org/Graphics/SVG/1.1/DTD/svg11.dtd">
<svg width="800" height="600" version="1.1" xmlns="http://www.w3.org/2000/svg">
<rect width="800" height="600" x="0" y="0" style="fill:rgb(238,238,238);stroke:none"/>
<rect width="800" height="600" x="0" y="0" style="fill:rgb(255,255,255);stroke:none"/>
<text x="2" y="566" fill="rgb(0,0,0)" font-family="Arial" font-size="12">0</text>
<text x="2" y="466" fill="rgb(0,0,0)" font-family="Arial" font-size="12">100000</text>
<text x="2" y="365" fill="rgb(0,0,0)" font-family="Arial" font-size="12">200000</text>
<text x="2" y="264" fill="rgb(0,0,0)" font-family="Arial" font-size="12">300000</text>
<text x="2" y="163" fill="rgb(0,0,0)" font-family="Arial" font-size="12">400000</text>
<text x="2" y="62" fill="rgb(0,0,0)" font-family="Arial" font-size="12">500000</text>
<text x="282" y="30" fill="rgb(0,0,0)" font-family="Arial" font-size="12">Quality score distribution over all sequences</text>
<line x1="53" y1="560" x2="790" y2="560" stroke="rgb(0,0,0)" stroke-width="1"/>
<line x1="53" y1="560" x2="53" y2="40" stroke="rgb(0,0,0)" stroke-width="1"/>
<text x="281" y="595" fill="rgb(0,0,0)" font-family="Arial" font-size="12">Mean Sequence Quality (Phred Score)</text>
<text x="57" y="575" fill="rgb(0,0,0)" font-family="Arial" font-size="12">11</text>
<rect width="24" height="520" x="77" y="40" style="fill:rgb(230,230,230);stroke:none"/>
<text x="81" y="575" fill="rgb(0,0,0)" font-family="Arial" font-size="12">12</text>
<text x="105" y="575" fill="rgb(0,0,0)" font-family="Arial" font-size="12">13</text>
<rect width="24" height="520" x="125" y="40" style="fill:rgb(230,230,230);stroke:none"/>
<text x="129" y="575" fill="rgb(0,0,0)" font-family="Arial" font-size="12">14</text>
<text x="153" y="575" fill="rgb(0,0,0)" font-family="Arial" font-size="12">15</text>
<rect width="24" height="520" x="173" y="40" style="fill:rgb(230,230,230);stroke:none"/>
<text x="177" y="575" fill="rgb(0,0,0)" font-family="Arial" font-size="12">16</text>
<text x="201" y="575" fill="rgb(0,0,0)" font-family="Arial" font-size="12">17</text>
<rect width="24" height="520" x="221" y="40" style="fill:rgb(230,230,230);stroke:none"/>
<text x="225" y="575" fill="rgb(0,0,0)" font-family="Arial" font-size="12">18</text>
<text x="249" y="575" fill="rgb(0,0,0)" font-family="Arial" font-size="12">19</text>
<rect width="24" height="520" x="269" y="40" style="fill:rgb(230,230,230);stroke:none"/>
<text x="273" y="575" fill="rgb(0,0,0)" font-family="Arial" font-size="12">20</text>
<text x="297" y="575" fill="rgb(0,0,0)" font-family="Arial" font-size="12">21</text>
<rect width="24" height="520" x="317" y="40" style="fill:rgb(230,230,230);stroke:none"/>
<text x="321" y="575" fill="rgb(0,0,0)" font-family="Arial" font-size="12">22</text>
<text x="345" y="575" fill="rgb(0,0,0)" font-family="Arial" font-size="12">23</text>
<rect width="24" height="520" x="365" y="40" style="fill:rgb(230,230,230);stroke:none"/>
<text x="369" y="575" fill="rgb(0,0,0)" font-family="Arial" font-size="12">24</text>
<text x="393" y="575" fill="rgb(0,0,0)" font-family="Arial" font-size="12">25</text>
<rect width="24" height="520" x="413" y="40" style="fill:rgb(230,230,230);stroke:none"/>
<text x="417" y="575" fill="rgb(0,0,0)" font-family="Arial" font-size="12">26</text>
<text x="441" y="575" fill="rgb(0,0,0)" font-family="Arial" font-size="12">27</text>
<rect width="24" height="520" x="461" y="40" style="fill:rgb(230,230,230);stroke:none"/>
<text x="465" y="575" fill="rgb(0,0,0)" font-family="Arial" font-size="12">28</text>
<text x="489" y="575" fill="rgb(0,0,0)" font-family="Arial" font-size="12">29</text>
<rect width="24" height="520" x="509" y="40" style="fill:rgb(230,230,230);stroke:none"/>
<text x="513" y="575" fill="rgb(0,0,0)" font-family="Arial" font-size="12">30</text>
<text x="537" y="575" fill="rgb(0,0,0)" font-family="Arial" font-size="12">31</text>
<rect width="24" height="520" x="557" y="40" style="fill:rgb(230,230,230);stroke:none"/>
<text x="561" y="575" fill="rgb(0,0,0)" font-family="Arial" font-size="12">32</text>
<text x="585" y="575" fill="rgb(0,0,0)" font-family="Arial" font-size="12">33</text>
<rect width="24" height="520" x="605" y="40" style="fill:rgb(230,230,230);stroke:none"/>
<text x="609" y="575" fill="rgb(0,0,0)" font-family="Arial" font-size="12">34</text>
<text x="633" y="575" fill="rgb(0,0,0)" font-family="Arial" font-size="12">35</text>
<rect width="24" height="520" x="653" y="40" style="fill:rgb(230,230,230);stroke:none"/>
<text x="657" y="575" fill="rgb(0,0,0)" font-family="Arial" font-size="12">36</text>
<text x="681" y="575" fill="rgb(0,0,0)" font-family="Arial" font-size="12">37</text>
<rect width="24" height="520" x="701" y="40" style="fill:rgb(230,230,230);stroke:none"/>
<text x="705" y="575" fill="rgb(0,0,0)" font-family="Arial" font-size="12">38</text>
<text x="729" y="575" fill="rgb(0,0,0)" font-family="Arial" font-size="12">39</text>
<rect width="24" height="520" x="749" y="40" style="fill:rgb(230,230,230);stroke:none"/>
<text x="753" y="575" fill="rgb(0,0,0)" font-family="Arial" font-size="12">40</text>
<line x1="53" y1="560" x2="790" y2="560" stroke="rgb(180,180,180)" stroke-width="1"/>
<line x1="53" y1="460" x2="790" y2="460" stroke="rgb(180,180,180)" stroke-width="1"/>
<line x1="53" y1="359" x2="790" y2="359" stroke="rgb(180,180,180)" stroke-width="1"/>
<line x1="53" y1="258" x2="790" y2="258" stroke="rgb(180,180,180)" stroke-width="1"/>
<line x1="53" y1="157" x2="790" y2="157" stroke="rgb(180,180,180)" stroke-width="1"/>
<line x1="53" y1="56" x2="790" y2="56" stroke="rgb(180,180,180)" stroke-width="1"/>
<line x1="65" y1="560" x2="89" y2="560" stroke="rgb(136,34,85)" stroke-width="1"/>
<line x1="89" y1="560" x2="113" y2="560" stroke="rgb(136,34,85)" stroke-width="1"/>
<line x1="113" y1="560" x2="137" y2="558" stroke="rgb(136,34,85)" stroke-width="1"/>
<line x1="137" y1="558" x2="161" y2="558" stroke="rgb(136,34,85)" stroke-width="1"/>
<line x1="161" y1="558" x2="185" y2="557" stroke="rgb(136,34,85)" stroke-width="1"/>
<line x1="185" y1="557" x2="209" y2="555" stroke="rgb(136,34,85)" stroke-width="1"/>
<line x1="209" y1="555" x2="233" y2="551" stroke="rgb(136,34,85)" stroke-width="1"/>
<line x1="233" y1="551" x2="257" y2="544" stroke="rgb(136,34,85)" stroke-width="1"/>
<line x1="257" y1="544" x2="281" y2="536" stroke="rgb(136,34,85)" stroke-width="1"/>
<line x1="281" y1="536" x2="305" y2="529" stroke="rgb(136,34,85)" stroke-width="1"/>
<line x1="305" y1="529" x2="329" y2="521" stroke="rgb(136,34,85)" stroke-width="1"/>
<line x1="329" y1="521" x2="353" y2="513" stroke="rgb(136,34,85)" stroke-width="1"/>
<line x1="353" y1="513" x2="377" y2="504" stroke="rgb(136,34,85)" stroke-width="1"/>
<line x1="377" y1="504" x2="401" y2="494" stroke="rgb(136,34,85)" stroke-width="1"/>
<line x1="401" y1="494" x2="425" y2="483" stroke="rgb(136,34,85)" stroke-width="1"/>
<line x1="425" y1="483" x2="449" y2="470" stroke="rgb(136,34,85)" stroke-width="1"/>
<line x1="449" y1="470" x2="473" y2="456" stroke="rgb(136,34,85)" stroke-width="1"/>
<line x1="473" y1="456" x2="497" y2="439" stroke="rgb(136,34,85)" stroke-width="1"/>
<line x1="497" y1="439" x2="521" y2="419" stroke="rgb(136,34,85)" stroke-width="1"/>
<line x1="521" y1="419" x2="545" y2="394" stroke="rgb(136,34,85)" stroke-width="1"/>
<line x1="545" y1="394" x2="569" y2="365" stroke="rgb(136,34,85)" stroke-width="1"/>
<line x1="569" y1="365" x2="593" y2="328" stroke="rgb(136,34,85)" stroke-width="1"/>
<line x1="593" y1="328" x2="617" y2="281" stroke="rgb(136,34,85)" stroke-width="1"/>
<line x1="617" y1="281" x2="641" y2="225" stroke="rgb(136,34,85)" stroke-width="1"/>
<line x1="641" y1="225" x2="665" y2="158" stroke="rgb(136,34,85)" stroke-width="1"/>
<line x1="665" y1="158" x2="689" y2="87" stroke="rgb(136,34,85)" stroke-width="1"/>
<line x1="689" y1="87" x2="713" y2="40" stroke="rgb(136,34,85)" stroke-width="1"/>
<line x1="713" y1="40" x2="737" y2="126" stroke="rgb(136,34,85)" stroke-width="1"/>
<line x1="737" y1="126" x2="761" y2="437" stroke="rgb(136,34,85)" stroke-width="1"/>
<rect width="183" height="23" x="607" y="40" style="fill:rgb(255,255,255);stroke:none"/>
<rect width="183" height="23" x="607" y="40" rx="0" ry="0" style="fill:none;stroke-width:1;stroke:rgb(192,192,192)"/>
<text x="610" y="55" fill="rgb(136,34,85)" font-family="Arial" font-size="12" font-weight="bold">Average Quality per read</text>
</svg>
