<?xml version="1.0" standalone="no"?>
<!DOCTYPE svg PUBLIC "-//W3C//DTD SVG 1.1//EN" "http://www.w3.org/Graphics/SVG/1.1/DTD/svg11.dtd">
<svg width="800" height="600" version="1.1" xmlns="http://www.w3.org/2000/svg">
<rect width="800" height="600" x="0" y="0" style="fill:rgb(238,238,238);stroke:none"/>
<rect width="800" height="600" x="0" y="0" style="fill:rgb(255,255,255);stroke:none"/>
<text x="2" y="566" fill="rgb(0,0,0)" font-family="Arial" font-size="12">0</text>
<text x="2" y="510" fill="rgb(0,0,0)" font-family="Arial" font-size="12">100000</text>
<text x="2" y="454" fill="rgb(0,0,0)" font-family="Arial" font-size="12">200000</text>
<text x="2" y="398" fill="rgb(0,0,0)" font-family="Arial" font-size="12">300000</text>
<text x="2" y="342" fill="rgb(0,0,0)" font-family="Arial" font-size="12">400000</text>
<text x="2" y="286" fill="rgb(0,0,0)" font-family="Arial" font-size="12">500000</text>
<text x="2" y="229" fill="rgb(0,0,0)" font-family="Arial" font-size="12">600000</text>
<text x="2" y="173" fill="rgb(0,0,0)" font-family="Arial" font-size="12">700000</text>
<text x="2" y="117" fill="rgb(0,0,0)" font-family="Arial" font-size="12">800000</text>
<text x="2" y="61" fill="rgb(0,0,0)" font-family="Arial" font-size="12">900000</text>
<text x="282" y="30" fill="rgb(0,0,0)" font-family="Arial" font-size="12">Quality score distribution over all sequences</text>
<line x1="53" y1="560" x2="790" y2="560" stroke="rgb(0,0,0)" stroke-width="1"/>
<line x1="53" y1="560" x2="53" y2="40" stroke="rgb(0,0,0)" stroke-width="1"/>
<text x="281" y="595" fill="rgb(0,0,0)" font-family="Arial" font-size="12">Mean Sequence Quality (Phred Score)</text>
<text x="58" y="575" fill="rgb(0,0,0)" font-family="Arial" font-size="12">13</text>
<rect width="26" height="520" x="79" y="40" style="fill:rgb(230,230,230);stroke:none"/>
<text x="84" y="575" fill="rgb(0,0,0)" font-family="Arial" font-size="12">14</text>
<text x="110" y="575" fill="rgb(0,0,0)" font-family="Arial" font-size="12">15</text>
<rect width="26" height="520" x="131" y="40" style="fill:rgb(230,230,230);stroke:none"/>
<text x="136" y="575" fill="rgb(0,0,0)" font-family="Arial" font-size="12">16</text>
<text x="162" y="575" fill="rgb(0,0,0)" font-family="Arial" font-size="12">17</text>
<rect width="26" height="520" x="183" y="40" style="fill:rgb(230,230,230);stroke:none"/>
<text x="188" y="575" fill="rgb(0,0,0)" font-family="Arial" font-size="12">18</text>
<text x="214" y="575" fill="rgb(0,0,0)" font-family="Arial" font-size="12">19</text>
<rect width="26" height="520" x="235" y="40" style="fill:rgb(230,230,230);stroke:none"/>
<text x="240" y="575" fill="rgb(0,0,0)" font-family="Arial" font-size="12">20</text>
<text x="266" y="575" fill="rgb(0,0,0)" font-family="Arial" font-size="12">21</text>
<rect width="26" height="520" x="287" y="40" style="fill:rgb(230,230,230);stroke:none"/>
<text x="292" y="575" fill="rgb(0,0,0)" font-family="Arial" font-size="12">22</text>
<text x="318" y="575" fill="rgb(0,0,0)" font-family="Arial" font-size="12">23</text>
<rect width="26" height="520" x="339" y="40" style="fill:rgb(230,230,230);stroke:none"/>
<text x="344" y="575" fill="rgb(0,0,0)" font-family="Arial" font-size="12">24</text>
<text x="370" y="575" fill="rgb(0,0,0)" font-family="Arial" font-size="12">25</text>
<rect width="26" height="520" x="391" y="40" style="fill:rgb(230,230,230);stroke:none"/>
<text x="396" y="575" fill="rgb(0,0,0)" font-family="Arial" font-size="12">26</text>
<text x="422" y="575" fill="rgb(0,0,0)" font-family="Arial" font-size="12">27</text>
<rect width="26" height="520" x="443" y="40" style="fill:rgb(230,230,230);stroke:none"/>
<text x="448" y="575" fill="rgb(0,0,0)" font-family="Arial" font-size="12">28</text>
<text x="474" y="575" fill="rgb(0,0,0)" font-family="Arial" font-size="12">29</text>
<rect width="26" height="520" x="495" y="40" style="fill:rgb(230,230,230);stroke:none"/>
<text x="500" y="575" fill="rgb(0,0,0)" font-family="Arial" font-size="12">30</text>
<text x="526" y="575" fill="rgb(0,0,0)" font-family="Arial" font-size="12">31</text>
<rect width="26" height="520" x="547" y="40" style="fill:rgb(230,230,230);stroke:none"/>
<text x="552" y="575" fill="rgb(0,0,0)" font-family="Arial" font-size="12">32</text>
<text x="578" y="575" fill="rgb(0,0,0)" font-family="Arial" font-size="12">33</text>
<rect width="26" height="520" x="599" y="40" style="fill:rgb(230,230,230);stroke:none"/>
<text x="604" y="575" fill="rgb(0,0,0)" font-family="Arial" font-size="12">34</text>
<text x="630" y="575" fill="rgb(0,0,0)" font-family="Arial" font-size="12">35</text>
<rect width="26" height="520" x="651" y="40" style="fill:rgb(230,230,230);stroke:none"/>
<text x="656" y="575" fill="rgb(0,0,0)" font-family="Arial" font-size="12">36</text>
<text x="682" y="575" fill="rgb(0,0,0)" font-family="Arial" font-size="12">37</text>
<rect width="26" height="520" x="703" y="40" style="fill:rgb(230,230,230);stroke:none"/>
<text x="708" y="575" fill="rgb(0,0,0)" font-family="Arial" font-size="12">38</text>
<text x="734" y="575" fill="rgb(0,0,0)" font-family="Arial" font-size="12">39</text>
<rect width="26" height="520" x="755" y="40" style="fill:rgb(230,230,230);stroke:none"/>
<text x="760" y="575" fill="rgb(0,0,0)" font-family="Arial" font-size="12">40</text>
<line x1="53" y1="560" x2="790" y2="560" stroke="rgb(180,180,180)" stroke-width="1"/>
<line x1="53" y1="504" x2="790" y2="504" stroke="rgb(180,180,180)" stroke-width="1"/>
<line x1="53" y1="448" x2="790" y2="448" stroke="rgb(180,180,180)" stroke-width="1"/>
<line x1="53" y1="392" x2="790" y2="392" stroke="rgb(180,180,180)" stroke-width="1"/>
<line x1="53" y1="336" x2="790" y2="336" stroke="rgb(180,180,180)" stroke-width="1"/>
<line x1="53" y1="280" x2="790" y2="280" stroke="rgb(180,180,180)" stroke-width="1"/>
<line x1="53" y1="223" x2="790" y2="223" stroke="rgb(180,180,180)" stroke-width="1"/>
<line x1="53" y1="167" x2="790" y2="167" stroke="rgb(180,180,180)" stroke-width="1"/>
<line x1="53" y1="111" x2="790" y2="111" stroke="rgb(180,180,180)" stroke-width="1"/>
<line x1="53" y1="55" x2="790" y2="55" stroke="rgb(180,180,180)" stroke-width="1"/>
<line x1="66" y1="560" x2="92" y2="560" stroke="rgb(136,34,85)" stroke-width="1"/>
<line x1="92" y1="560" x2="118" y2="560" stroke="rgb(136,34,85)" stroke-width="1"/>
<line x1="118" y1="560" x2="144" y2="560" stroke="rgb(136,34,85)" stroke-width="1"/>
<line x1="144" y1="560" x2="170" y2="560" stroke="rgb(136,34,85)" stroke-width="1"/>
<line x1="170" y1="560" x2="196" y2="560" stroke="rgb(136,34,85)" stroke-width="1"/>
<line x1="196" y1="560" x2="222" y2="560" stroke="rgb(136,34,85)" stroke-width="1"/>
<line x1="222" y1="560" x2="248" y2="560" stroke="rgb(136,34,85)" stroke-width="1"/>
<line x1="248" y1="560" x2="274" y2="559" stroke="rgb(136,34,85)" stroke-width="1"/>
<line x1="274" y1="559" x2="300" y2="558" stroke="rgb(136,34,85)" stroke-width="1"/>
<line x1="300" y1="558" x2="326" y2="557" stroke="rgb(136,34,85)" stroke-width="1"/>
<line x1="326" y1="557" x2="352" y2="556" stroke="rgb(136,34,85)" stroke-width="1"/>
<line x1="352" y1="556" x2="378" y2="554" stroke="rgb(136,34,85)" stroke-width="1"/>
<line x1="378" y1="554" x2="404" y2="552" stroke="rgb(136,34,85)" stroke-width="1"/>
<line x1="404" y1="552" x2="430" y2="550" stroke="rgb(136,34,85)" stroke-width="1"/>
<line x1="430" y1="550" x2="456" y2="547" stroke="rgb(136,34,85)" stroke-width="1"/>
<line x1="456" y1="547" x2="482" y2="544" stroke="rgb(136,34,85)" stroke-width="1"/>
<line x1="482" y1="544" x2="508" y2="541" stroke="rgb(136,34,85)" stroke-width="1"/>
<line x1="508" y1="541" x2="534" y2="536" stroke="rgb(136,34,85)" stroke-width="1"/>
<line x1="534" y1="536" x2="560" y2="531" stroke="rgb(136,34,85)" stroke-width="1"/>
<line x1="560" y1="531" x2="586" y2="523" stroke="rgb(136,34,85)" stroke-width="1"/>
<line x1="586" y1="523" x2="612" y2="513" stroke="rgb(136,34,85)" stroke-width="1"/>
<line x1="612" y1="513" x2="638" y2="499" stroke="rgb(136,34,85)" stroke-width="1"/>
<line x1="638" y1="499" x2="664" y2="475" stroke="rgb(136,34,85)" stroke-width="1"/>
<line x1="664" y1="475" x2="690" y2="429" stroke="rgb(136,34,85)" stroke-width="1"/>
<line x1="690" y1="429" x2="716" y2="335" stroke="rgb(136,34,85)" stroke-width="1"/>
<line x1="716" y1="335" x2="742" y2="119" stroke="rgb(136,34,85)" stroke-width="1"/>
<line x1="742" y1="119" x2="768" y2="40" stroke="rgb(136,34,85)" stroke-width="1"/>
<rect width="183" height="23" x="607" y="40" style="fill:rgb(255,255,255);stroke:none"/>
<rect width="183" height="23" x="607" y="40" rx="0" ry="0" style="fill:none;stroke-width:1;stroke:rgb(192,192,192)"/>
<text x="610" y="55" fill="rgb(136,34,85)" font-family="Arial" font-size="12" font-weight="bold">Average Quality per read</text>
</svg>
