<?xml version="1.0" standalone="no"?>
<!DOCTYPE svg PUBLIC "-//W3C//DTD SVG 1.1//EN" "http://www.w3.org/Graphics/SVG/1.1/DTD/svg11.dtd">
<svg width="800" height="600" version="1.1" xmlns="http://www.w3.org/2000/svg">
<rect width="800" height="600" x="0" y="0" style="fill:rgb(238,238,238);stroke:none"/>
<rect width="800" height="600" x="0" y="0" style="fill:rgb(255,255,255);stroke:none"/>
<text x="2" y="566" fill="rgb(0,0,0)" font-family="Arial" font-size="12">0</text>
<text x="2" y="470" fill="rgb(0,0,0)" font-family="Arial" font-size="12">20000</text>
<text x="2" y="374" fill="rgb(0,0,0)" font-family="Arial" font-size="12">40000</text>
<text x="2" y="278" fill="rgb(0,0,0)" font-family="Arial" font-size="12">60000</text>
<text x="2" y="181" fill="rgb(0,0,0)" font-family="Arial" font-size="12">80000</text>
<text x="2" y="85" fill="rgb(0,0,0)" font-family="Arial" font-size="12">100000</text>
<text x="282" y="30" fill="rgb(0,0,0)" font-family="Arial" font-size="12">Quality score distribution over all sequences</text>
<line x1="53" y1="560" x2="790" y2="560" stroke="rgb(0,0,0)" stroke-width="1"/>
<line x1="53" y1="560" x2="53" y2="40" stroke="rgb(0,0,0)" stroke-width="1"/>
<text x="281" y="595" fill="rgb(0,0,0)" font-family="Arial" font-size="12">Mean Sequence Quality (Phred Score)</text>
<text x="60" y="575" fill="rgb(0,0,0)" font-family="Arial" font-size="12">14</text>
<rect width="30" height="520" x="83" y="40" style="fill:rgb(230,230,230);stroke:none"/>
<text x="90" y="575" fill="rgb(0,0,0)" font-family="Arial" font-size="12">15</text>
<text x="120" y="575" fill="rgb(0,0,0)" font-family="Arial" font-size="12">16</text>
<rect width="30" height="520" x="143" y="40" style="fill:rgb(230,230,230);stroke:none"/>
<text x="150" y="575" fill="rgb(0,0,0)" font-family="Arial" font-size="12">17</text>
<text x="180" y="575" fill="rgb(0,0,0)" font-family="Arial" font-size="12">18</text>
<rect width="30" height="520" x="203" y="40" style="fill:rgb(230,230,230);stroke:none"/>
<text x="210" y="575" fill="rgb(0,0,0)" font-family="Arial" font-size="12">19</text>
<text x="240" y="575" fill="rgb(0,0,0)" font-family="Arial" font-size="12">20</text>
<rect width="30" height="520" x="263" y="40" style="fill:rgb(230,230,230);stroke:none"/>
<text x="270" y="575" fill="rgb(0,0,0)" font-family="Arial" font-size="12">21</text>
<text x="300" y="575" fill="rgb(0,0,0)" font-family="Arial" font-size="12">22</text>
<rect width="30" height="520" x="323" y="40" style="fill:rgb(230,230,230);stroke:none"/>
<text x="330" y="575" fill="rgb(0,0,0)" font-family="Arial" font-size="12">23</text>
<text x="360" y="575" fill="rgb(0,0,0)" font-family="Arial" font-size="12">24</text>
<rect width="30" height="520" x="383" y="40" style="fill:rgb(230,230,230);stroke:none"/>
<text x="390" y="575" fill="rgb(0,0,0)" font-family="Arial" font-size="12">25</text>
<text x="420" y="575" fill="rgb(0,0,0)" font-family="Arial" font-size="12">26</text>
<rect width="30" height="520" x="443" y="40" style="fill:rgb(230,230,230);stroke:none"/>
<text x="450" y="575" fill="rgb(0,0,0)" font-family="Arial" font-size="12">27</text>
<text x="480" y="575" fill="rgb(0,0,0)" font-family="Arial" font-size="12">28</text>
<rect width="30" height="520" x="503" y="40" style="fill:rgb(230,230,230);stroke:none"/>
<text x="510" y="575" fill="rgb(0,0,0)" font-family="Arial" font-size="12">29</text>
<text x="540" y="575" fill="rgb(0,0,0)" font-family="Arial" font-size="12">30</text>
<rect width="30" height="520" x="563" y="40" style="fill:rgb(230,230,230);stroke:none"/>
<text x="570" y="575" fill="rgb(0,0,0)" font-family="Arial" font-size="12">31</text>
<text x="600" y="575" fill="rgb(0,0,0)" font-family="Arial" font-size="12">32</text>
<rect width="30" height="520" x="623" y="40" style="fill:rgb(230,230,230);stroke:none"/>
<text x="630" y="575" fill="rgb(0,0,0)" font-family="Arial" font-size="12">33</text>
<text x="660" y="575" fill="rgb(0,0,0)" font-family="Arial" font-size="12">34</text>
<rect width="30" height="520" x="683" y="40" style="fill:rgb(230,230,230);stroke:none"/>
<text x="690" y="575" fill="rgb(0,0,0)" font-family="Arial" font-size="12">35</text>
<text x="720" y="575" fill="rgb(0,0,0)" font-family="Arial" font-size="12">36</text>
<rect width="30" height="520" x="743" y="40" style="fill:rgb(230,230,230);stroke:none"/>
<text x="750" y="575" fill="rgb(0,0,0)" font-family="Arial" font-size="12">37</text>
<line x1="53" y1="560" x2="790" y2="560" stroke="rgb(180,180,180)" stroke-width="1"/>
<line x1="53" y1="464" x2="790" y2="464" stroke="rgb(180,180,180)" stroke-width="1"/>
<line x1="53" y1="368" x2="790" y2="368" stroke="rgb(180,180,180)" stroke-width="1"/>
<line x1="53" y1="272" x2="790" y2="272" stroke="rgb(180,180,180)" stroke-width="1"/>
<line x1="53" y1="175" x2="790" y2="175" stroke="rgb(180,180,180)" stroke-width="1"/>
<line x1="53" y1="79" x2="790" y2="79" stroke="rgb(180,180,180)" stroke-width="1"/>
<line x1="68" y1="560" x2="98" y2="560" stroke="rgb(136,34,85)" stroke-width="1"/>
<line x1="98" y1="560" x2="128" y2="560" stroke="rgb(136,34,85)" stroke-width="1"/>
<line x1="128" y1="560" x2="158" y2="560" stroke="rgb(136,34,85)" stroke-width="1"/>
<line x1="158" y1="560" x2="188" y2="560" stroke="rgb(136,34,85)" stroke-width="1"/>
<line x1="188" y1="560" x2="218" y2="559" stroke="rgb(136,34,85)" stroke-width="1"/>
<line x1="218" y1="559" x2="248" y2="559" stroke="rgb(136,34,85)" stroke-width="1"/>
<line x1="248" y1="559" x2="278" y2="558" stroke="rgb(136,34,85)" stroke-width="1"/>
<line x1="278" y1="558" x2="308" y2="556" stroke="rgb(136,34,85)" stroke-width="1"/>
<line x1="308" y1="556" x2="338" y2="555" stroke="rgb(136,34,85)" stroke-width="1"/>
<line x1="338" y1="555" x2="368" y2="552" stroke="rgb(136,34,85)" stroke-width="1"/>
<line x1="368" y1="552" x2="398" y2="548" stroke="rgb(136,34,85)" stroke-width="1"/>
<line x1="398" y1="548" x2="428" y2="541" stroke="rgb(136,34,85)" stroke-width="1"/>
<line x1="428" y1="541" x2="458" y2="529" stroke="rgb(136,34,85)" stroke-width="1"/>
<line x1="458" y1="529" x2="488" y2="512" stroke="rgb(136,34,85)" stroke-width="1"/>
<line x1="488" y1="512" x2="518" y2="485" stroke="rgb(136,34,85)" stroke-width="1"/>
<line x1="518" y1="485" x2="548" y2="445" stroke="rgb(136,34,85)" stroke-width="1"/>
<line x1="548" y1="445" x2="578" y2="385" stroke="rgb(136,34,85)" stroke-width="1"/>
<line x1="578" y1="385" x2="608" y2="298" stroke="rgb(136,34,85)" stroke-width="1"/>
<line x1="608" y1="298" x2="638" y2="191" stroke="rgb(136,34,85)" stroke-width="1"/>
<line x1="638" y1="191" x2="668" y2="90" stroke="rgb(136,34,85)" stroke-width="1"/>
<line x1="668" y1="90" x2="698" y2="40" stroke="rgb(136,34,85)" stroke-width="1"/>
<line x1="698" y1="40" x2="728" y2="344" stroke="rgb(136,34,85)" stroke-width="1"/>
<line x1="728" y1="344" x2="758" y2="559" stroke="rgb(136,34,85)" stroke-width="1"/>
<rect width="183" height="23" x="607" y="40" style="fill:rgb(255,255,255);stroke:none"/>
<rect width="183" height="23" x="607" y="40" rx="0" ry="0" style="fill:none;stroke-width:1;stroke:rgb(192,192,192)"/>
<text x="610" y="55" fill="rgb(136,34,85)" font-family="Arial" font-size="12" font-weight="bold">Average Quality per read</text>
</svg>
